<?xml version="1.0" encoding="utf-8"?>
<!-- Generator: Adobe Illustrator 23.1.1, SVG Export Plug-In . SVG Version: 6.00 Build 0)  -->
<svg version="1.1" id="Layer_1" xmlns="http://www.w3.org/2000/svg" xmlns:xlink="http://www.w3.org/1999/xlink" x="0px" y="0px"
	 viewBox="0 0 30 30" style="enable-background:new 0 0 30 30;" xml:space="preserve">
<style type="text/css">
	.st0{fill:#000000;}
</style>
<path class="st0" d="M21.07,6.09c1.7,0,3.08,1.38,3.08,3.08c0,1.7-1.38,3.08-3.08,3.08c-1.7,0-3.08-1.38-3.08-3.08
	C17.99,7.47,19.37,6.09,21.07,6.09z M15,9.85c1.7,0,3.08,1.38,3.08,3.08c0,1.7-1.38,3.08-3.08,3.08c-1.7,0-3.08-1.38-3.08-3.08
	C11.92,11.23,13.3,9.85,15,9.85z M8.93,6.09c1.7,0,3.08,1.38,3.08,3.08c0,1.7-1.38,3.08-3.08,3.08c-1.7,0-3.08-1.38-3.08-3.08
	C5.84,7.47,7.22,6.09,8.93,6.09z M5.47,19.73l-0.41-2.47v2.35c-0.81-0.25-1.5-0.58-2.02-0.96V16.8c0-1.97,0.67-3.78,4.38-4.16
	c0.45,0.23,0.96,0.36,1.5,0.36c0.54,0,1.05-0.13,1.5-0.36c0.23,0.02,0.45,0.05,0.66,0.08c0,0.07-0.01,0.13-0.01,0.2
	c0,1.11,0.46,2.11,1.21,2.82c-2.54,0.54-3.85,1.99-3.99,4.39C7.28,20.1,6.32,19.95,5.47,19.73z M20.74,22.53
	c-0.5,0.34-1.14,0.63-1.88,0.85v-2.36l-0.41,2.47c-1.02,0.27-2.19,0.42-3.45,0.42c-1.26,0-2.44-0.15-3.46-0.42l-0.41-2.47v2.35
	c-0.81-0.25-1.5-0.58-2.02-0.96v-1.86c0-1.97,0.67-3.78,4.38-4.16c0.45,0.23,0.96,0.36,1.5,0.36c0.54,0,1.05-0.13,1.5-0.36
	c3.76,0.37,4.24,2.19,4.24,4.16V22.53z M26.95,18.66c-0.52,0.38-1.21,0.71-2.02,0.96v-2.35l-0.41,2.47
	c-0.88,0.23-1.89,0.38-2.96,0.41c-0.07-1.8-0.7-3.74-3.85-4.4c0.74-0.71,1.2-1.71,1.2-2.82c0-0.07,0-0.14-0.01-0.2
	c0.21-0.03,0.43-0.06,0.66-0.08c0.45,0.23,0.96,0.36,1.5,0.36c0.54,0,1.05-0.13,1.5-0.36c3.71,0.37,4.38,2.19,4.38,4.16V18.66z"/>
</svg>
