<?xml version="1.0" encoding="utf-8"?>
<!-- Generator: Adobe Illustrator 23.0.2, SVG Export Plug-In . SVG Version: 6.00 Build 0)  -->
<svg version="1.1" id="Ebene_1" xmlns="http://www.w3.org/2000/svg" xmlns:xlink="http://www.w3.org/1999/xlink" x="0px" y="0px"
	 viewBox="0 0 283.5 124" style="enable-background:new 0 0 283.5 124;" xml:space="preserve">
<style type="text/css">
	.st0{fill:#005DA9;}
	.st1{fill:#E30034;}
</style>
<path class="st0" d="M211.2,83.5c10.6,0,13.9-11.2,13.9-21.5c0-13.8-5.8-21-13.9-21c-10.2,0-13.8,11.2-13.7,21.2
	C197.6,72.1,200.4,83.5,211.2,83.5z M206,61.9c0-4.1,0-13.7,5.2-13.7c5.6,0,5.4,9.5,5.4,13.9c0,4.2,0,14.4-5.2,14.4
	C205.8,76.4,206,66.2,206,61.9z M180.4,83.5c4.3,0,8-1.7,11.5-5.4l-3.1-5.8c-2.4,2.6-4.8,4-7.7,4c-2.4,0-4.4-1.4-5.6-3.8
	c-1-2.1-1.2-4.5-1.2-7.1v-0.8h18v-1.8c0-8.9-1.1-13.8-3.9-17.5c-2.1-2.8-5.2-4.3-9-4.3c-4,0-7.3,1.8-9.7,5.3
	c-2.6,3.8-3.7,8.9-3.7,15.9C165.9,75.6,171.2,83.5,180.4,83.5z M179.5,47.6c2,0,3.2,1.1,4,2.9c0.6,1.6,0.9,4.3,0.9,7.5h-10.1
	C174.4,50.9,175.9,47.6,179.5,47.6z M231.7,82.5h7.8v-30c1.9-2.3,4.1-3.6,5.7-3.6c1,0,2,0.2,2.6,1c0.6,0.9,0.9,2.2,0.9,5.3v27.3h7.8
	V51.6c0-2.7-0.3-5.4-1.9-7.4c-1.4-1.8-3.6-2.9-6.4-2.9c-3.6,0-7.3,2.1-9.3,4.5c-0.1-2.1-0.8-4.1-1-4.8l-7.3,1.9c0.4,2.2,1,4.9,1,9.8
	V82.5z M141.1,45.8c-0.1-2.1-0.8-4.1-1-4.8l-7.3,1.9c0.4,2.2,1,4.9,1,9.8v29.7h7.8v-30c1.9-2.3,4.1-3.6,5.7-3.6c1,0,2,0.2,2.6,1
	c0.6,0.9,0.9,2.2,0.9,5.3v27.3h7.8V51.6c0-2.7-0.3-5.4-1.9-7.4c-1.4-1.8-3.6-2.9-6.4-2.9C146.8,41.3,143.1,43.4,141.1,45.8z
	 M45.7,28.3c4.6,0,8.3-3.7,8.3-8.3c0-4.6-3.7-8.3-8.3-8.3c-4.6,0-8.3,3.7-8.3,8.3C37.4,24.6,41.1,28.3,45.7,28.3z M84,82.5V51.6
	c0-2.7-0.3-5.4-1.9-7.4c-1.4-1.8-3.6-2.9-6.4-2.9c-3.6,0-7.3,2.1-9.3,4.5c-0.1-2.1-0.8-4.1-1-4.8L58.2,43c0.4,2.2,1,4.9,1,9.8v29.7
	H67v-30c1.9-2.3,4.1-3.6,5.7-3.6c1,0,2,0.2,2.6,1c0.6,0.9,0.9,2.2,0.9,5.3v27.3H84z M119.9,26.1c-2.9,0-5.2,2.3-5.2,5.2
	c0,2.9,2.3,5.2,5.1,5.2c2.9,0,5.2-2.3,5.2-5.2C125,28.4,122.7,26.1,119.9,26.1z M42,82.5h7.8V33.8l-7.8,1V82.5z M105.7,30.9
	c1.4,0,2.8,0.5,3.7,1.2l2.2-6.1c-2.1-1.5-4.4-2.2-7.3-2.2c-2,0-4.1,0.5-6,2c-1.9,1.6-3.9,4.8-3.9,10.8c0,2.6,0.1,5.3,0.1,5.3h-2.7
	v6.9h2.7v33.6h8V48.9h5.9l1.5-6.9h-7.3v-6.2C102.6,32.8,103.8,30.9,105.7,30.9z M115.9,82.5h7.9V41.3l-7.9,1V82.5z"/>
<path class="st1" d="M240.5,104.5c-26.4,7.8-58.5,11.2-89.9,11.2c-79.7,0-131.1-23.4-134.7-54.3c-1.3-11.6,7.8-22.9,23-32.5
	c-2.7-2-4.4-5.2-4.5-8.8C12.4,31.7,0,46.9,0,62.3c0,34.1,60.9,62.9,151.4,61.7c31.5-0.4,57.8-4.9,81.6-12.7
	c28.3-9.2,46.1-22.4,50.4-28.2C278.3,87.7,266.2,96.9,240.5,104.5z M72.6,13.7c5.3-1.8,12.8-4.1,12.8-4.1c21.1-5.8,44.4-9.2,66.1-9
	c-25-1.5-47.8,0-67.7,3.6c0,0-6.6,1.1-13.7,2.9c0,0-3.4,0.9-5.5,1.5c-2.1,0.6-5,1.4-5,1.4c-2,0.6-4,1.3-6,2c2,2,3.2,4.6,3.3,7.6
	C60.4,18,67.1,15.6,72.6,13.7z"/>
</svg>
